<svg xmlns="http://www.w3.org/2000/svg" viewBox="0 0 1920 1080" width="1920" height="1080">
	<style>
		tspan { white-space:pre }
		.shp0 { fill: #004f95 } 
	</style>
	<path class="shp0" d="M-25 496C-25 496 -25.16 497.53 -25.17 500.18C-25.27 514.83 -21.13 563.78 37 580C105.67 599.16 201.33 574.84 248 634C294.67 693.16 250.33 700.84 299 748C347.67 795.16 396.33 743.84 458 815C519.67 886.16 465.33 917.84 544 952C622.67 986.16 614.33 991.84 634 1032C653.67 1072.16 642.33 1100.84 722 1123C801.67 1145.16 688 1231 688 1231L-11 1170C-11 1170 -93.67 911.84 -94 906C-94.33 900.16 -60 558 -60 558" />
</svg>